<mxfile host="Electron" agent="Mozilla/5.0 (Windows NT 10.0; Win64; x64) AppleWebKit/537.36 (KHTML, like Gecko) draw.io/26.2.15 Chrome/134.0.6998.205 Electron/35.2.1 Safari/537.36" version="26.2.15">
  <diagram name="第 1 页" id="TT5oH1KyW0GTJH-dtgE3">
    <mxGraphModel dx="1426" dy="-320" grid="1" gridSize="10" guides="1" tooltips="1" connect="1" arrows="1" fold="1" page="1" pageScale="1" pageWidth="827" pageHeight="1169" math="0" shadow="0">
      <root>
        <mxCell id="0" />
        <mxCell id="1" parent="0" />
        <mxCell id="J9cfehEsDGc4GjS6Rc7E-1" value="&lt;div&gt;&lt;font style=&quot;font-size: 26px; color: rgb(0, 255, 128);&quot;&gt;@FunctionalInterface&lt;/font&gt;&lt;/div&gt;&lt;font style=&quot;font-size: 26px;&quot;&gt;interface MyLambdaInterface{&lt;/font&gt;&lt;div&gt;&lt;font style=&quot;font-size: 26px;&quot;&gt;void doSomething(String s)};&lt;/font&gt;&lt;/div&gt;" style="rounded=1;whiteSpace=wrap;html=1;sketch=1;curveFitting=1;jiggle=2;align=center;textDirection=ltr;" vertex="1" parent="1">
          <mxGeometry x="170" y="1390" width="420" height="130" as="geometry" />
        </mxCell>
      </root>
    </mxGraphModel>
  </diagram>
</mxfile>
